<svg width="27" height="27" viewBox="0 0 27 27" fill="none" xmlns="http://www.w3.org/2000/svg">
<path d="M18.3008 13.2702L25.846 5.72503C26.7719 4.79913 26.7719 3.29794 25.846 2.37129L24.1691 0.694423C23.2432 -0.231474 21.742 -0.231474 20.8153 0.694423L13.2702 8.23958L5.72503 0.694423C4.79913 -0.231474 3.29794 -0.231474 2.37129 0.694423L0.694423 2.37129C-0.231474 3.29719 -0.231474 4.79838 0.694423 5.72503L8.23958 13.2702L0.694423 20.8153C-0.231474 21.7412 -0.231474 23.2424 0.694423 24.1691L2.37129 25.846C3.29719 26.7719 4.79913 26.7719 5.72503 25.846L13.2702 18.3008L20.8153 25.846C21.7412 26.7719 23.2432 26.7719 24.1691 25.846L25.846 24.1691C26.7719 23.2432 26.7719 21.742 25.846 20.8153L18.3008 13.2702Z" fill="white"/>
</svg>
